<?xml version="1.0" encoding="utf-8"?>
<!-- Generator: Adobe Illustrator 16.0.0, SVG Export Plug-In . SVG Version: 6.00 Build 0)  -->
<!DOCTYPE svg PUBLIC "-//W3C//DTD SVG 1.1//EN" "http://www.w3.org/Graphics/SVG/1.1/DTD/svg11.dtd">
<svg version="1.1" id="Layer_1" xmlns="http://www.w3.org/2000/svg" xmlns:xlink="http://www.w3.org/1999/xlink" x="0px" y="0px"
	 width="200px" height="200px" viewBox="0 0 200 200" enable-background="new 0 0 200 200" xml:space="preserve">
<g>
	<path d="M99.381,1C45.044,1,1,45.044,1,99.381c0,54.337,44.044,98.381,98.381,98.381c54.337,0,98.381-44.044,98.381-98.381
		C197.762,45.044,153.718,1,99.381,1z M99.381,182.391c-45.846,0-83.009-37.164-83.009-83.01s37.163-83.009,83.009-83.009
		s83.01,37.163,83.01,83.009S145.227,182.391,99.381,182.391z"/>
	<g>
		<rect x="62.488" y="68.637" fill-rule="evenodd" clip-rule="evenodd" width="73.786" height="12.297"/>
		<rect x="62.488" y="93.232" fill-rule="evenodd" clip-rule="evenodd" width="73.786" height="12.298"/>
		<rect x="62.488" y="117.827" fill-rule="evenodd" clip-rule="evenodd" width="73.786" height="12.298"/>
	</g>
</g>
</svg>
